<svg xmlns="http://www.w3.org/2000/svg" xmlns:xlink="http://www.w3.org/1999/xlink" width="93" zoomAndPan="magnify" viewBox="0 0 69.75 30.000001" height="40" preserveAspectRatio="xMidYMid meet" version="1.0"><defs><g/><clipPath id="4f6417958e"><path d="M 2.417969 4.316406 L 67.113281 4.316406 L 67.113281 23.917969 L 2.417969 23.917969 Z M 2.417969 4.316406 " clip-rule="nonzero"/></clipPath><clipPath id="31a4f8296e"><path d="M 5.320312 4.316406 L 64.1875 4.316406 C 64.957031 4.316406 65.695312 4.621094 66.242188 5.167969 C 66.785156 5.710938 67.089844 6.449219 67.089844 7.21875 L 67.089844 21.011719 C 67.089844 21.785156 66.785156 22.523438 66.242188 23.066406 C 65.695312 23.609375 64.957031 23.917969 64.1875 23.917969 L 5.320312 23.917969 C 4.550781 23.917969 3.8125 23.609375 3.269531 23.066406 C 2.722656 22.523438 2.417969 21.785156 2.417969 21.011719 L 2.417969 7.21875 C 2.417969 6.449219 2.722656 5.710938 3.269531 5.167969 C 3.8125 4.621094 4.550781 4.316406 5.320312 4.316406 Z M 5.320312 4.316406 " clip-rule="nonzero"/></clipPath></defs><g clip-path="url(#4f6417958e)"><g clip-path="url(#31a4f8296e)"><path fill="#e52a7c" d="M 2.417969 4.316406 L 67.113281 4.316406 L 67.113281 23.917969 L 2.417969 23.917969 Z M 2.417969 4.316406 " fill-opacity="1" fill-rule="nonzero"/></g></g><g fill="#ffffff" fill-opacity="1"><g transform="translate(6.583358, 19.064461)"><g><path d="M 0.953125 -5.171875 C 0.953125 -5.816406 1.148438 -6.34375 1.546875 -6.75 C 1.953125 -7.164062 2.5 -7.375 3.1875 -7.375 C 3.882812 -7.375 4.429688 -7.148438 4.828125 -6.703125 C 5.234375 -6.265625 5.472656 -5.71875 5.546875 -5.0625 C 6.203125 -5.695312 6.820312 -6.269531 7.40625 -6.78125 L 8.5 -6.78125 C 8.25 -5.5625 8.125 -4.390625 8.125 -3.265625 C 8.125 -2.191406 8.25 -1.101562 8.5 0 L 7.359375 0 C 7.160156 -0.96875 7.0625 -1.914062 7.0625 -2.84375 C 7.0625 -3.625 7.132812 -4.453125 7.28125 -5.328125 C 6.613281 -4.703125 5.988281 -4.109375 5.40625 -3.546875 C 5.226562 -2.859375 4.882812 -2.300781 4.375 -1.875 C 3.875 -1.457031 3.222656 -1.25 2.421875 -1.25 C 2.015625 -1.25 1.578125 -1.285156 1.109375 -1.359375 L 1.109375 -2.328125 C 1.546875 -2.273438 1.96875 -2.25 2.375 -2.25 C 3.070312 -2.25 3.59375 -2.46875 3.9375 -2.90625 C 4.289062 -3.351562 4.46875 -3.957031 4.46875 -4.71875 C 4.46875 -5.21875 4.363281 -5.625 4.15625 -5.9375 C 3.957031 -6.25 3.640625 -6.40625 3.203125 -6.40625 C 2.835938 -6.40625 2.550781 -6.289062 2.34375 -6.0625 C 2.144531 -5.832031 2.046875 -5.519531 2.046875 -5.125 C 2.046875 -4.738281 2.09375 -4.398438 2.1875 -4.109375 L 1.125 -4.109375 C 1.007812 -4.429688 0.953125 -4.785156 0.953125 -5.171875 Z M -0.296875 -9.34375 L 7.40625 -9.34375 C 7.457031 -9.582031 7.484375 -9.828125 7.484375 -10.078125 C 7.484375 -10.734375 7.125 -11.0625 6.40625 -11.0625 C 6.15625 -11.0625 5.664062 -11 4.9375 -10.875 C 4.207031 -10.757812 3.613281 -10.703125 3.15625 -10.703125 C 2.507812 -10.703125 1.957031 -10.800781 1.5 -11 L 1.5 -11.90625 C 1.976562 -11.757812 2.503906 -11.6875 3.078125 -11.6875 C 3.429688 -11.6875 4 -11.742188 4.78125 -11.859375 C 5.570312 -11.984375 6.128906 -12.046875 6.453125 -12.046875 C 7.140625 -12.046875 7.65625 -11.878906 8 -11.546875 C 8.351562 -11.210938 8.53125 -10.765625 8.53125 -10.203125 C 8.53125 -9.890625 8.5 -9.601562 8.4375 -9.34375 L 10.015625 -9.34375 L 10.015625 -8.359375 L -0.296875 -8.359375 Z M -0.296875 -9.34375 "/></g></g></g><g fill="#ffffff" fill-opacity="1"><g transform="translate(16.070645, 19.064461)"><g><path d="M 2.1875 -2.265625 L 1.0625 -2.265625 L 1.0625 -8.359375 L -0.296875 -8.359375 L -0.296875 -9.34375 L 7.984375 -9.34375 L 7.984375 -8.359375 L 2.1875 -8.359375 L 2.1875 -3.875 C 2.632812 -4.414062 3.179688 -4.953125 3.828125 -5.484375 C 4.472656 -6.015625 4.988281 -6.375 5.375 -6.5625 L 6.484375 -6.5625 L 6.484375 0 L 5.375 0 L 5.375 -5.359375 C 4.882812 -5.015625 4.332031 -4.546875 3.71875 -3.953125 C 3.113281 -3.367188 2.601562 -2.804688 2.1875 -2.265625 Z M 2.1875 -2.265625 "/></g></g></g><g fill="#ffffff" fill-opacity="1"><g transform="translate(23.756364, 19.064461)"><g/></g></g><g fill="#ffffff" fill-opacity="1"><g transform="translate(27.039866, 19.064461)"><g><path d="M 8.703125 -4.125 C 8.703125 -2.988281 8.367188 -2.054688 7.703125 -1.328125 C 7.046875 -0.597656 6.128906 -0.234375 4.953125 -0.234375 C 3.691406 -0.234375 2.695312 -0.664062 1.96875 -1.53125 C 1.238281 -2.40625 0.875 -3.5625 0.875 -5 C 0.875 -5.394531 0.898438 -5.800781 0.953125 -6.21875 L 2.0625 -6.21875 C 2.019531 -5.875 2 -5.476562 2 -5.03125 C 2 -3.875 2.253906 -2.945312 2.765625 -2.25 C 3.273438 -1.5625 4.003906 -1.21875 4.953125 -1.21875 C 5.804688 -1.21875 6.460938 -1.488281 6.921875 -2.03125 C 7.390625 -2.570312 7.625 -3.296875 7.625 -4.203125 C 7.625 -4.335938 7.613281 -4.519531 7.59375 -4.75 C 6.957031 -4.363281 6.335938 -4.171875 5.734375 -4.171875 C 5.160156 -4.171875 4.695312 -4.34375 4.34375 -4.6875 C 4 -5.039062 3.828125 -5.523438 3.828125 -6.140625 L 3.828125 -8.359375 L -0.296875 -8.359375 L -0.296875 -9.34375 L 7.234375 -9.34375 C 7.273438 -9.582031 7.296875 -9.828125 7.296875 -10.078125 C 7.296875 -10.734375 6.941406 -11.0625 6.234375 -11.0625 C 5.992188 -11.0625 5.503906 -11 4.765625 -10.875 C 4.035156 -10.757812 3.441406 -10.703125 2.984375 -10.703125 C 2.328125 -10.703125 1.773438 -10.800781 1.328125 -11 L 1.328125 -11.90625 C 1.804688 -11.757812 2.332031 -11.6875 2.90625 -11.6875 C 3.257812 -11.6875 3.828125 -11.742188 4.609375 -11.859375 C 5.398438 -11.984375 5.957031 -12.046875 6.28125 -12.046875 C 6.957031 -12.046875 7.472656 -11.878906 7.828125 -11.546875 C 8.179688 -11.210938 8.359375 -10.765625 8.359375 -10.203125 C 8.359375 -9.890625 8.328125 -9.601562 8.265625 -9.34375 L 9.78125 -9.34375 L 9.78125 -8.359375 L 4.953125 -8.359375 L 4.953125 -6.140625 C 4.953125 -5.492188 5.242188 -5.171875 5.828125 -5.171875 C 6.097656 -5.171875 6.382812 -5.222656 6.6875 -5.328125 C 7 -5.441406 7.257812 -5.554688 7.46875 -5.671875 C 7.6875 -5.796875 7.984375 -5.976562 8.359375 -6.21875 C 8.585938 -5.625 8.703125 -4.925781 8.703125 -4.125 Z M 8.703125 -4.125 "/></g></g></g><g fill="#ffffff" fill-opacity="1"><g transform="translate(36.512621, 19.064461)"><g><path d="M 0.828125 -3.578125 L 2.34375 -4.5 C 2.050781 -5.113281 1.507812 -5.570312 0.71875 -5.875 L 0.71875 -6.484375 C 0.71875 -7.273438 0.972656 -7.972656 1.484375 -8.578125 C 2.003906 -9.179688 2.722656 -9.484375 3.640625 -9.484375 C 4.679688 -9.484375 5.425781 -9.117188 5.875 -8.390625 L 5.875 -10.5625 L 7.015625 -10.5625 L 7.015625 -9.34375 L 8.640625 -9.34375 L 8.640625 -8.359375 L 7.015625 -8.359375 L 7.015625 0 L 5.875 0 L 5.875 -5.4375 L 0.828125 -2.34375 Z M 1.8125 -6.46875 C 2.445312 -6.164062 2.910156 -5.679688 3.203125 -5.015625 L 5.828125 -6.640625 C 5.742188 -7.203125 5.53125 -7.648438 5.1875 -7.984375 C 4.84375 -8.316406 4.375 -8.484375 3.78125 -8.484375 C 3.15625 -8.484375 2.671875 -8.296875 2.328125 -7.921875 C 1.984375 -7.546875 1.8125 -7.0625 1.8125 -6.46875 Z M 1.8125 -6.46875 "/></g></g></g><g fill="#ffffff" fill-opacity="1"><g transform="translate(44.852128, 19.064461)"><g><path d="M 5.65625 0.140625 L 4.09375 0.140625 L 1.140625 -1.984375 L 1.140625 -2.953125 L 2.40625 -2.953125 C 3.101562 -2.960938 3.628906 -3.140625 3.984375 -3.484375 C 4.347656 -3.828125 4.53125 -4.304688 4.53125 -4.921875 C 4.53125 -5.390625 4.410156 -5.753906 4.171875 -6.015625 C 3.941406 -6.273438 3.617188 -6.40625 3.203125 -6.40625 C 2.816406 -6.40625 2.507812 -6.285156 2.28125 -6.046875 C 2.050781 -5.804688 1.9375 -5.492188 1.9375 -5.109375 C 1.9375 -4.867188 1.984375 -4.539062 2.078125 -4.125 L 1.015625 -4.125 C 0.898438 -4.414062 0.84375 -4.757812 0.84375 -5.15625 C 0.84375 -5.800781 1.050781 -6.332031 1.46875 -6.75 C 1.894531 -7.164062 2.46875 -7.375 3.1875 -7.375 C 3.925781 -7.375 4.519531 -7.140625 4.96875 -6.671875 C 5.425781 -6.203125 5.65625 -5.617188 5.65625 -4.921875 C 5.65625 -4.109375 5.394531 -3.441406 4.875 -2.921875 C 4.351562 -2.410156 3.628906 -2.128906 2.703125 -2.078125 L 5.65625 0.03125 Z M 6.890625 -8.359375 L -0.296875 -8.359375 L -0.296875 -9.34375 L 6.890625 -9.34375 Z M 6.890625 -8.359375 "/></g></g></g><g fill="#ffffff" fill-opacity="1"><g transform="translate(51.448195, 19.064461)"><g><path d="M 4.109375 -8.359375 L 2.46875 -8.359375 L 2.46875 0 L 1.359375 0 L 1.359375 -7.1875 C 1.359375 -7.5625 1.289062 -7.847656 1.15625 -8.046875 C 1.019531 -8.253906 0.773438 -8.359375 0.421875 -8.359375 L -0.296875 -8.359375 L -0.296875 -9.34375 L 0.46875 -9.34375 C 0.925781 -9.34375 1.265625 -9.132812 1.484375 -8.71875 C 1.410156 -9.15625 1.375 -9.625 1.375 -10.125 L 1.375 -10.5625 L 2.46875 -10.5625 L 2.46875 -9.34375 L 4.109375 -9.34375 Z M 4.109375 -8.359375 "/></g></g></g><g fill="#ffffff" fill-opacity="1"><g transform="translate(55.269257, 19.064461)"><g><path d="M 7.921875 -8.359375 L 6.28125 -8.359375 L 6.28125 0 L 5.171875 0 L 0.625 -3.484375 L 0.625 -4.75 C 1.257812 -5.332031 1.976562 -5.859375 2.78125 -6.328125 C 3.59375 -6.796875 4.390625 -7.125 5.171875 -7.3125 L 5.171875 -8.359375 L -0.296875 -8.359375 L -0.296875 -9.34375 L 7.921875 -9.34375 Z M 1.90625 -0.96875 C 2.0625 -0.820312 2.140625 -0.640625 2.140625 -0.421875 C 2.140625 -0.210938 2.0625 -0.0390625 1.90625 0.09375 C 1.757812 0.238281 1.570312 0.3125 1.34375 0.3125 C 1.125 0.3125 0.941406 0.238281 0.796875 0.09375 C 0.660156 -0.0390625 0.59375 -0.210938 0.59375 -0.421875 C 0.59375 -0.640625 0.664062 -0.820312 0.8125 -0.96875 C 0.957031 -1.125 1.132812 -1.203125 1.34375 -1.203125 C 1.5625 -1.203125 1.75 -1.125 1.90625 -0.96875 Z M 5.171875 -1.3125 L 5.171875 -6.25 C 3.941406 -5.851562 2.75 -5.140625 1.59375 -4.109375 Z M 5.171875 -1.3125 "/></g></g></g></svg>