<svg xmlns="http://www.w3.org/2000/svg" version="1.1" xmlns:xlink="http://www.w3.org/1999/xlink" width="512" height="512" x="0" y="0" viewBox="0 0 512 512" style="enable-background:new 0 0 512 512" xml:space="preserve" class=""><g><path fill="#FFB30F" d="M307 177h10v70h-10zM190 69h10v50h-10z" opacity="1" data-original="#ffb30f"></path><path fill="#399349" d="M175 118.7h40v210h-40z" opacity="1" data-original="#399349"></path><path fill="#399349" d="M150 278.7h260v140H150z" opacity="1" data-original="#399349"></path><path fill="#2B6E38" d="M150 373.7h260v45H150z" opacity="1" data-original="#2b6e38"></path><path fill="#FFB30F" d="M168 198.7h54v20h-54zM168 118.7h54v20h-54z" opacity="1" data-original="#ffb30f"></path><path fill="#F691BD" d="M195 98.7c-11 0-20 9-20 20h40c0-11-9-20-20-20zM312.5 206.2c-40 0-72.5 32.5-72.5 72.5h145c0-40-32.5-72.5-72.5-72.5zM190 169h10v30h-10zM190 249h10v30h-10z" opacity="1" data-original="#ffcb5d" class=""></path><g fill="#FFB30F"><path d="M312.5 328.7c-13.8 0-25 11.2-25 25v65h50v-65c0-13.8-11.2-25-25-25zM410 328.7c-13.8 0-25 11.2-25 25v65h25zM215 328.7c-13.8 0-25 11.2-25 25v65h50v-65c0-13.8-11.2-25-25-25z" fill="#FFB30F" opacity="1" data-original="#ffb30f"></path></g><path fill="#F691BD" d="M301 417.3c-113.8 0-206-92.2-206-206C95 104.8 176.3 17.7 280 7c-7.8-.7-16.1-1.7-24-1.7-138.6 0-251 112.4-251 251s112.4 251 251 251 251-112.4 251-251c0-7.9-1.3-15.5-2-23.3-10.7 103.7-97.5 184.3-204 184.3z" opacity="1" data-original="#ffcb5d" class=""></path><path fill="#DC5E95" d="M507 256.3c0 138.6-112.4 251-251 251S5 394.9 5 256.3s112.4-251 251-251c4 0 8 .3 12.1.6 0 0 0 .1-.1.3-121.2 5.3-218 105-218 227.6C50 360 152.3 462.3 278.5 462.3c122.6 0 222.1-96.5 227.5-217.6.2 0 .3-.1.3-.1.4 3.9.7 7.7.7 11.7z" opacity="1" data-original="#ffe3a9" class=""></path><path fill="#FFB30F" d="m410 156.5 24.7 16.5-8-28.6L450 126l-29.7-1.1L410 97l-10.3 27.9L370 126l23.3 18.4-8 28.6zM110 214.5l24.7 16.5-8-28.6L150 184l-29.7-1.1L110 155l-10.3 27.9L70 184l23.3 18.4-8 28.6z" opacity="1" data-original="#ffb30f"></path><path fill="#2B6E38" d="M175 138.7h40v20h-40zM175 218.7h40v20h-40z" opacity="1" data-original="#2b6e38"></path><path fill="#4D2419" d="M256 512.3c-68.4 0-132.7-26.6-181-75C26.6 389 0 324.7 0 256.3s26.6-132.7 75-181S187.6.3 256 .3c6.7 0 13.6.7 20.2 1.3 1.4.1 2.9.3 4.3.4 2.6.2 4.5 2.4 4.5 5s-1.9 4.7-4.5 5C188 21.5 114.6 92.1 101.9 183.6l-9.9-1.4C98.4 136 120.6 92.6 154.5 60c23.3-22.4 51.6-39.2 82.2-49C110 20.9 10 127.1 10 256.3c0 135.6 110.4 246 246 246 129.1 0 235.3-100 245.2-226.5-27.1 85.9-106.9 146.5-200.2 146.5-50.5 0-99.4-18.1-137.6-51-37.8-32.6-63-77.5-70.8-126.5l9.9-1.6c15.6 98 99.1 169.1 198.5 169.1 102.9 0 188.4-77.3 199-179.8.3-2.5 2.4-4.5 5-4.5s4.7 2 5 4.5c.2 2.3.5 4.6.7 6.9.6 5.4 1.3 11 1.3 16.8 0 68.4-26.6 132.7-75 181-48.3 48.5-112.6 75.1-181 75.1z" opacity="1" data-original="#4d2419" class=""></path><path fill="#4D2419" d="M415 365.7h-10v-82H155v67.4h-10v-72.4c0-2.8 2.2-5 5-5h260c2.8 0 5 2.2 5 5z" opacity="1" data-original="#4d2419" class=""></path><path fill="#4D2419" d="M215 283.7h-40c-2.8 0-5-2.2-5-5v-60c0-2.8 2.2-5 5-5h40c2.8 0 5 2.2 5 5v60c0 2.8-2.2 5-5 5zm-35-10h30v-50h-30zM215 203.7h-40c-2.8 0-5-2.2-5-5v-60c0-2.8 2.2-5 5-5h40c2.8 0 5 2.2 5 5v60c0 2.8-2.2 5-5 5zm-35-10h30v-50h-30z" opacity="1" data-original="#4d2419" class=""></path><path fill="#4D2419" d="M222 223.7h-54c-2.8 0-5-2.2-5-5v-20c0-2.8 2.2-5 5-5h54c2.8 0 5 2.2 5 5v20c0 2.8-2.2 5-5 5zm-49-10h44v-10h-44zM222 143.7h-54c-2.8 0-5-2.2-5-5v-20c0-2.8 2.2-5 5-5h54c2.8 0 5 2.2 5 5v20c0 2.8-2.2 5-5 5zm-49-10h44v-10h-44z" opacity="1" data-original="#4d2419" class=""></path><path fill="#4D2419" d="M215 123.7h-40c-2.8 0-5-2.2-5-5 0-13.8 11.2-25 25-25s25 11.2 25 25c0 2.8-2.2 5-5 5zm-34.1-10h28.3c-2.1-5.8-7.6-10-14.1-10s-12.2 4.2-14.2 10z" opacity="1" data-original="#4d2419" class=""></path><path fill="#4D2419" d="M190 69h10v30h-10zM385 283.7H240c-2.8 0-5-2.2-5-5 0-42.7 34.8-77.5 77.5-77.5S390 236 390 278.7c0 2.8-2.2 5-5 5zm-139.8-10h134.6c-2.6-34.9-31.8-62.5-67.3-62.5s-64.8 27.6-67.3 62.5zM190 169h10v30h-10zM190 249h10v30h-10zM292.5 416.6h-10v-62.9c0-16.5 13.5-30 30-30s30 13.5 30 30v60.1h-10v-60.1c0-11-9-20-20-20s-20 9-20 20zM390 399.1h-10v-45.4c0-16.5 13.5-30 30-30v10c-11 0-20 9-20 20zM245 407.8h-10v-54.1c0-11-9-20-20-20s-20 9-20 20v30.9h-10v-30.9c0-16.5 13.5-30 30-30s30 13.5 30 30z" opacity="1" data-original="#4d2419" class=""></path><path fill="#4D2419" d="M307 177h10v30h-10zM434.7 178c-1 0-1.9-.3-2.8-.8L410 162.5l-21.9 14.6c-1.7 1.2-4 1.1-5.7-.1s-2.4-3.4-1.9-5.4l7.1-25.4-20.7-16.2c-1.6-1.3-2.3-3.5-1.7-5.5s2.5-3.4 4.6-3.5l26.4-1 9.1-24.7c.7-2 2.6-3.3 4.7-3.3s4 1.3 4.7 3.3l9.1 24.7 26.4 1c2.1.1 3.9 1.5 4.6 3.5s0 4.2-1.7 5.5l-20.7 16.3 7.1 25.4c.6 2-.2 4.2-1.9 5.4-.8.6-1.8.9-2.9.9zM410 151.5c1 0 1.9.3 2.8.8l13.5 9-4.4-15.6c-.5-1.9.1-4 1.7-5.3l12.7-10-16.2-.6c-2-.1-3.8-1.4-4.5-3.3l-5.6-15.2-5.6 15.2c-.7 1.9-2.5 3.2-4.5 3.3l-16.2.6 12.7 10c1.6 1.3 2.3 3.3 1.7 5.3l-4.4 15.6 13.5-9c.9-.5 1.8-.8 2.8-.8zM134.7 236c-1 0-1.9-.3-2.8-.8L110 220.5l-21.9 14.6c-1.7 1.2-4 1.1-5.7-.1s-2.4-3.4-1.9-5.4l7.1-25.4L66.9 188c-1.6-1.3-2.3-3.5-1.7-5.5s2.5-3.4 4.6-3.5l26.4-1 9.1-24.7c.7-2 2.6-3.3 4.7-3.3s4 1.3 4.7 3.3l9.1 24.7 26.4 1c2.1.1 3.9 1.5 4.6 3.5s0 4.2-1.7 5.5l-20.7 16.3 7.1 25.4c.6 2-.2 4.2-1.9 5.4-.8.6-1.8.9-2.9.9zM110 209.5c1 0 1.9.3 2.8.8l13.5 9-4.4-15.6c-.5-1.9.1-4 1.7-5.3l12.7-10-16.2-.6c-2-.1-3.8-1.4-4.5-3.3l-5.6-15.2-5.6 15.2c-.7 1.9-2.5 3.2-4.5 3.3l-16.2.6 12.7 10c1.6 1.3 2.3 3.3 1.7 5.3l-4.4 15.6 13.5-9c.9-.5 1.8-.8 2.8-.8z" opacity="1" data-original="#4d2419" class=""></path></g></svg>